# xmcd
#
# Track frame offsets:
#	182
#	10587
#	21175
#	32495
#	47475
#	58637
#	70015
#	80187
#	99062
#	107662
#	117785
#	127180
#	139922
#	151500
#	163640
#	176275
#
# Disc length: 2513
#
# Revision: 1
# Processed by: cddbd v1.5.1PL0 Copyright (c) Steve Scherf et al.
# Submitted via: CDex 1.51
# Normalized: r0:DSETVAR1,TDELIM( - )
#
DISCID=bc09cf10
DTITLE=Various Artist - Country Greats Vol.2
DYEAR=1900
DGENRE=Country
TTITLE0=Frankie Lane - Mule Skinner Blues
TTITLE1=Glenn Campbell - Blue Ribbons
TTITLE2=Johnny Cash - Mean Eyed Cat
TTITLE3=Willie Nelson - Face of a Fighter
TTITLE4=Stu Stevens - Sunday Girl
TTITLE5=Don Williams - Follow me back to Louisville
TTITLE6=Buddy Knox - Devil Woman
TTITLE7=Don David Jr. - Tennessee Queen
TTITLE8=Conway Twitty - Blue is the Way that i Feel
TTITLE9=Faroun Young - Hello Walls
TTITLE10=George Jones - Worlds Worst Looser
TTITLE11=Dolly Parton - Little Blossom
TTITLE12=Patsy Cline - I've Loved and Lost Again
TTITLE13=Gene Simmons - Catahoula Cur Dog
TTITLE14=Freddy Fender - Silver Wings
TTITLE15=Bobby Helms - Fraulein
EXTD=
EXTT0=
EXTT1=
EXTT2=
EXTT3=
EXTT4=
EXTT5=
EXTT6=
EXTT7=
EXTT8=
EXTT9=
EXTT10=
EXTT11=
EXTT12=
EXTT13=
EXTT14=
EXTT15=
PLAYORDER=
